<?xml version="1.0" encoding="UTF-8" standalone="no"?>
<svg xmlns="http://www.w3.org/2000/svg" viewBox="0 0 36 36">
<style>
	g path { stroke: none; }
	g.root { display: none; }
	g.root:target { display: inline; }
	g line { stroke: black; }
	g circle { stroke: black; }
	g polyline { stroke: black; }
</style>
<g class="root" id="vcard" data-name="vCard">
	<path d="M34.918 31.801L1.081 31.801C0.48 31.801 0 31.322 0 30.723L0 5.278C0 4.679 0.48 4.2 1.081 4.2L34.958 4.2L34.957 4.199C35.558 4.199 36.038 4.718 35.998 5.318L35.998 30.723C35.998 31.322 35.518 31.801 34.918 31.801ZM2.203 6.396L2.203 29.647L33.836 29.647L33.877 6.396L2.203 6.396ZM29.912 23.933L21.303 23.933C20.702 23.933 20.222 23.455 20.222 22.855C20.222 22.255 20.702 21.776 21.303 21.776L29.912 21.777C30.512 21.777 30.993 22.257 30.993 22.856C30.993 23.455 30.512 23.933 29.912 23.933ZM29.912 18.542L21.303 18.542C20.702 18.542 20.222 18.062 20.222 17.462C20.222 16.862 20.702 16.383 21.303 16.383L29.912 16.385C30.512 16.385 30.993 16.864 30.993 17.463C30.993 18.062 30.512 18.542 29.912 18.542ZM29.912 13.187L21.303 13.187C20.702 13.187 20.222 12.669 20.222 12.109C20.222 11.509 20.702 11.031 21.303 11.031L29.912 11.031C30.512 11.031 30.993 11.509 30.993 12.109C30.993 12.708 30.512 13.187 29.912 13.187ZM17.18 26.49L5.927 26.49L5.927 26.49C5.327 26.49 4.847 26.011 4.885 25.372L4.885 22.777C4.885 20.18 6.366 17.903 8.569 16.784C7.608 15.945 7.008 14.705 7.008 13.348C7.008 10.831 9.089 8.754 11.613 8.753C14.136 8.753 16.217 10.829 16.217 13.347C16.217 14.705 15.617 15.942 14.657 16.782C16.819 17.902 18.34 20.138 18.34 22.774L18.34 22.815L18.261 25.412C18.261 26.011 17.781 26.49 17.18 26.49ZM11.572 10.99C10.252 10.99 9.13 12.07 9.129 13.427C9.129 14.787 10.211 15.864 11.572 15.864C12.935 15.864 14.015 14.786 14.015 13.427C14.015 12.069 12.894 10.99 11.572 10.99ZM11.572 18.262C9.051 18.262 7.008 20.299 7.008 22.815L7.008 24.333L16.097 24.333L16.138 22.815C16.138 20.299 14.094 18.262 11.572 18.262Z" />
</g>
<g class="root" id="quotes" data-name="quotes">
	<path d="M8.013 15.466a8.045 8.045 0 0 1 6.48 1.483a7.661 7.661 0 0 1 0.231 12.059a8.034 8.034 0 0 1-5.245 1.86a9.036 9.036 0 0 1-7.602-4.26a14.634 14.634 0 0 1-1.877-6.96c0.309-6.651 3.214-11.288 8.768-13.765a11.187 11.187 0 0 1 2.006-0.557l0.977-0.137a1.55 1.55 0 0 1 1.954 1.62v1.628a1.607 1.607 0 0 1-1.483 1.62c-2.983 0.549-4.217 1.997-4.551 5.451m4.354-8.957c-6.583 0.969-10.071 7.225-10.302 13.174a10.971 10.971 0 0 0 1.568 6.034a7.495 7.495 0 0 0 6.265 3.48a6.613 6.613 0 0 0 4.148-1.466a6.055 6.055 0 0 0-0.231-9.514a6.322 6.322 0 0 0-5.245-1.166a1.573 1.573 0 0 1-0.549 0.077a1.614 1.614 0 0 1-1.646-1.543a2.571 2.571 0 0 1 0-0.771c0.394-3.326 1.568-5.648 5.794-6.42 0.163 0 0.163-0.077 0.163-0.077m14.476 7.105a8.038 8.038 0 0 1 6.48 1.483a7.661 7.661 0 0 1 0.231 12.059a8.002 8.002 0 0 1-5.245 1.86a9.021 9.021 0 0 1-7.594-4.26a14.731 14.731 0 0 1-1.886-6.96c0.317-6.651 3.214-11.288 8.777-13.765a11.097 11.097 0 0 1 1.997-0.557l0.977-0.137a1.55 1.55 0 0 1 1.954 1.62v1.628a1.607 1.607 0 0 1-1.483 1.62c-2.974 0.549-4.217 1.997-4.551 5.451m4.363-8.957c-6.591 0.969-10.071 7.225-10.311 13.174a10.971 10.971 0 0 0 1.568 6.034a7.495 7.495 0 0 0 6.265 3.48a6.613 6.613 0 0 0 4.148-1.466a6.055 6.055 0 0 0-0.231-9.514a6.322 6.322 0 0 0-5.245-1.166a1.573 1.573 0 0 1-0.549 0.077a1.614 1.614 0 0 1-1.646-1.543a2.571 2.571 0 0 1 0-0.771c0.394-3.326 1.568-5.648 5.794-6.42 0.154 0 0.154-0.077 0.154-0.077" />
</g>
<g class="root" id="playpause" data-name="playpause">
	<path d="M31.398 27.243L31.398 8.757L36 8.757L36 27.243L31.398 27.243ZM22.175 8.757L26.777 8.757L26.777 27.243L22.175 27.243L22.175 8.757ZM0 6.908L16.618 18L0 29.092L0 6.908Z" />
</g>
<g class="root" id="play" data-name="play">
	<path d="M18 1.5A16.5 16.5-3803.788 1 1 1.5 18A16.52 16.52-3803.788 0 1 18 1.5Zm0-1.5a18 18 0 1 0 18 18A18 18-3803.788 0 0 18 0Zm-5.244 26.542a0.784 0.784 0 0 1-0.384-0.1a0.755 0.755 0 0 1-0.372-0.649V10.2a0.75 0.75 0 0 1 1.128-0.65l13.5 7.8a0.754 0.754 0 0 1 0 1.3l-13.5 7.793a0.752 0.752 0 0 1-0.384 0.104h0.012Zm0.744-15.04v12.99l11.244-6.496l-11.244-6.496h0Z" />
</g>
<g class="root" id="phone" data-name="phone">
	<path d="M32.391 26.874c-1.746-0.648-3.42-1.368-5.112-2.16-1.602-0.792-3.222-1.584-4.752-2.52l-2.664 4.824a34.903 34.903 0 0 1-10.638-14.886l5.184-1.08a63.48 63.48 0 0 1-1.332-11.052l-6.246 0.216l-3.222 0.072a39.022 39.022 0 0 0 25.632 35.712l1.062-3.096Z" />
</g>
<g class="root" id="home" data-name="home">
	<path d="M35.815 19.997l-17.325-17.966a0.655 0.655 0 0 0-0.479-0.205h0a0.665 0.665 0 0 0-0.491 0.201l-17.325 17.972a0.671 0.671 0 0 0 0.012 0.951a0.706 0.706 0 0 0 0.491 0.181a0.67 0.67 0 0 0 0.467-0.202l2.253-2.336V33.504a0.682 0.682 0 0 0 0.683 0.673h9.501a0.671 0.671 0 0 0 0.671-0.673V23.05h7.453v10.456a0.682 0.682 0 0 0 0.683 0.673h9.501a0.682 0.682 0 0 0 0.683-0.673V18.592l2.241 2.33a0.694 0.694 0 0 0 0.479 0.207h0.012a0.669 0.669 0 0 0 0.491-1.132h0Zm-13.407 1.706h-8.806a0.67 0.67 0 0 0-0.671 0.67v10.46h-8.159V17.187l13.228-13.731l13.24 13.731V32.833h-8.159v-10.46a0.671 0.671 0 0 0-0.671-0.67h0Z" />
</g>
<g class="root" id="globe" data-name="globe">
	<path d="M18 32.326a14.04 14.04 0 0 1-7.578-2.196l0.72-3.384a4.006 4.006 0 0 0-0.27-2.466l-1.098-2.376a0.88 0.88 0 0 0-0.684-0.504l-3.978-0.558a0.479 0.479 0 0 1-0.306-0.792l0.684-0.846a0.948 0.948 0 0 1 0.792-0.306l1.494 0.234a1.284 1.284 0 0 0 0.522-0.036l2.016-0.45a0.38 0.38 0 0 0 0.18-0.072l1.332-0.648a0.849 0.849 0 0 0 0.486-0.648l0.54-3.978a0.846 0.846 0 0 0-0.54-0.918l-0.684-0.252a0.9 0.9 0 0 1-0.594-0.792a0.879 0.879 0 0 1 0.792-0.918l0.99-0.072a0.874 0.874 0 0 0 0.792-0.918l-0.072-1.206l-0.126-2.394a0.804 0.804 0 0 0-0.558-0.756l-0.54-0.18a14.091 14.091 0 0 1 5.652-1.134a12.456 12.456 0 0 1 3.186 0.378l0.108 2.124v0.072l-0.27 2.646a0.387 0.387 0 0 0 0.072 0.27l0.306 0.45a0.38 0.38 0 0 0 0.576 0.072l0.792-0.72a0.416 0.416 0 0 1 0.648 0.198l0.036 0.108a0.36 0.36 0 0 0 0.342 0.27l0.9 0.036a0.242 0.242 0 0 0 0.162-0.036l0.756-0.306a0.369 0.369 0 0 1 0.486 0.486l-0.414 1.368a0.348 0.348 0 0 1-0.342 0.27l-1.008 0.036h-0.126l-1.278-0.378a0.681 0.681 0 0 0-0.27 0l-0.612 0.27a0.447 0.447 0 0 1-0.306 0l-0.792-0.378a0.387 0.387 0 0 0-0.342 0.036l-1.026 0.72a0.339 0.339 0 0 0-0.144 0.306l0.144 1.17a0.322 0.322 0 0 1-0.216 0.378l-0.756 0.342a0.39 0.39 0 0 0-0.126 0.612l0.54 0.486a0.519 0.519 0 0 0 0.342 0.108l0.972-0.216a0.494 0.494 0 0 1 0.234 0.036l0.45 0.18a8.232 8.232 0 0 1 0.72 0.54a0.408 0.408 0 0 0 0.576-0.072a0.51 0.51 0 0 1 0.27-0.198l0.756-0.072a0.312 0.312 0 0 0 0.216-0.108l0.09-0.09a0.36 0.36 0 0 1 0.594 0.162l0.378 1.062c0.036 0.036 0.036 0.072 0.072 0.108l0.432 0.576a0.411 0.411 0 0 1-0.036 0.522l-1.062 0.99a0.39 0.39 0 0 1-0.54 0l-1.026-0.954c-0.036-0.036-0.072-0.036-0.108-0.072l-1.44-0.612c-0.036 0-0.072-0.036-0.108-0.036l-1.908-0.18h-0.144l-1.584 0.45a1.522 1.522 0 0 0-1.062 1.026l-0.378 1.17a1.383 1.383 0 0 0 0.072 1.134l0.594 1.296a1.65 1.65 0 0 0 1.296 0.9l1.44 0.162c0.036 0 0.108 0.036 0.144 0.036l0.81 0.45a0.37 0.37 0 0 1 0.18 0.306l0.108 1.44a4.156 4.156 0 0 0 0.432 1.44l0.684 1.278a0.416 0.416 0 0 0 0.108 0.162l1.134 0.828a0.462 0.462 0 0 0 0.648-0.108l0.378-0.504c0.036-0.072 0.072-0.108 0.108-0.18l0.828-2.088a0.108 0.108 0 0 1 0.054-0.108l0.252-3.006c0-0.036 0.054-0.072 0.054-0.108l0.594-1.242a0.426 0.426 0 0 1 0.378-0.234l2.052 0.27a0.54 0.54 0 0 0 0.342-0.126l0.378-0.414a0.408 0.408 0 0 0 0.036-0.486l-0.99-1.296a0.413 0.413 0 0 1 0.234-0.612l0.378-0.072c0.072 0 0.648-0.036 0.828-0.072h0.072l0.918 0.144a0.396 0.396 0 0 1 0.378 0.432l-0.234 2.61a0.236 0.236 0 0 0 0.054 0.18l0.72 1.872a14.362 14.362 0 0 1-13.158 8.676h0Zm0-32.326a18 18 0 1 0 18 18A18 18-8468.53 0 0 18 0Z" />
</g>
<g class="root" id="directions" data-name="directions">
	<path d="M29.221 22.078C29.204 22.101 29.173 22.109 29.154 22.131L19.242 35.376C19.205 35.427 19.144 35.449 19.101 35.494C19.048 35.551 19.013 35.621 18.951 35.67C18.899 35.709 18.841 35.726 18.787 35.758C18.722 35.797 18.662 35.833 18.592 35.862C18.399 35.944 18.201 36 18 36C17.799 36 17.601 35.944 17.408 35.862C17.337 35.833 17.278 35.797 17.213 35.758C17.159 35.726 17.101 35.709 17.049 35.67C16.973 35.614 16.93 35.535 16.868 35.468C16.835 35.432 16.787 35.416 16.758 35.376L6.779 22.041C4.951 19.653 4 16.787 4 13.776C4 6.172 10.286 0.001 17.999 0C17.999 0 18 0 18 0C25.713 0 32 6.172 32 13.813C32 16.825 31.049 19.69 29.221 22.078ZM18 3.122C18 3.122 18 3.122 18 3.122C12.006 3.122 7.107 7.898 7.107 13.776C7.107 16.089 7.838 18.292 9.261 20.128C9.262 20.129 9.264 20.13 9.264 20.131L18 31.804L26.736 20.131C28.125 18.294 28.891 16.09 28.891 13.776C28.891 7.898 23.995 3.123 18 3.122ZM18 19.286C15.003 19.286 12.554 16.825 12.554 13.813C12.554 10.8 15.003 8.303 18 8.303C20.997 8.303 23.446 10.764 23.446 13.776C23.446 16.787 20.997 19.286 18 19.286ZM18 11.461C16.721 11.461 15.661 12.526 15.661 13.811C15.661 15.097 16.721 16.162 18 16.162C19.279 16.162 20.339 15.097 20.339 13.811C20.339 12.49 19.279 11.461 18 11.461Z" />
</g>
<g class="root" id="description" data-name="description">
	<path d="M0 31.065L0 4.935L36 4.935L36 31.065L0 31.065ZM33.097 7.832L2.903 7.832L2.903 28.168L33.097 28.168L33.097 7.832ZM20.329 25.252L5.813 25.252L5.813 22.355L20.329 22.355L20.329 25.252ZM5.813 16.542L30.189 16.542L30.189 19.456L5.813 19.456L5.813 16.542ZM5.813 10.748L30.189 10.748L30.189 13.645L5.813 13.645L5.813 10.748Z" />
</g>
<g class="root" id="contact" data-name="contact">
	<path d="M0.636 32.411a0.663 0.663 0 0 1-0.636-0.684V4.273a0.663 0.663 0 0 1 0.636-0.684h34.716a0.666 0.666 0 0 1 0.648 0.684v27.454a0.666 0.666 0 0 1-0.648 0.684h-34.716Zm0.648-1.366h33.433V4.956h-33.433V31.045Zm16.71-8.637a0.613 0.613 0 0 1-0.432-0.188l-17.358-17.449a0.729 0.729 0 0 1-0.156-0.757a0.638 0.638 0 0 1 0.588-0.423h34.716a0.654 0.654 0 0 1 0.6 0.423a0.734 0.734 0 0 1-0.156 0.759l-17.358 17.449A0.626 0.626-3802.708 0 1 17.994 22.408Zm0-1.622l15.751-15.835h-31.49Z" />
</g>
<g class="root" id="close" data-name="close">
	<path d="M35.354 3.806a2.2 2.2 0 0 0 0-3.117l-0.04-0.036a2.21 2.21 0 0 0-3.121 0l-13.643 13.635a0.8 0.8 0 0 1-1.12 0l-13.643-13.635a2.186 2.186 0 0 0-3.101 0l-0.04 0.036a2.2 2.2 0 0 0 0 3.117l13.643 13.635a0.788 0.788 0 0 1 0 1.118l-13.643 13.635a2.2 2.2 0 0 0 0 3.117l0.04 0.036a2.186 2.186 0 0 0 3.101 0l13.643-13.635a0.8 0.8 0 0 1 1.12 0l13.643 13.635a2.21 2.21 0 0 0 3.121 0l0.04-0.036a2.2 2.2 0 0 0 0-3.117l-13.643-13.635a0.788 0.788 0 0 1 0-1.118Z" />
</g>
</svg>