<svg xmlns="http://www.w3.org/2000/svg" width="188.1301" height="162.9247" viewBox="0 0 188.1301 162.9247"><defs><style>.a{fill:#4d4d4d;}.b{fill:#fff;}</style></defs><title>air_icon</title><path class="a" d="M113.9635,141.24a9.24,9.24,0,0,0,9.2291,9.2285,4.53,4.53,0,0,0,4.5252-4.5251,1.1913,1.1913,0,0,0-1.1887-1.1908,6.9474,6.9474,0,1,1,0-13.8948,15.101,15.101,0,0,1,15.0834,15.0856,18.4483,18.4483,0,0,1-11.2876,16.9812H141.097L162.7737,125.38h-32.95A15.8764,15.8764,0,0,0,113.9635,141.24Z"/><path class="a" d="M83.0258,102.2318a15.8754,15.8754,0,0,0-15.8594,15.8594,9.24,9.24,0,0,0,9.229,9.229,4.53,4.53,0,0,0,4.5247-4.5253,1.1912,1.1912,0,0,0-1.1907-1.1886,6.9474,6.9474,0,1,1,0-13.8948,15.1027,15.1027,0,0,1,15.0855,15.0834,18.4418,18.4418,0,0,1-18.4195,18.42,23.1515,23.1515,0,0,1-23.1238-23.1238A29.787,29.787,0,0,1,83.0258,88.337H183.8669c.0965,0,.19.01.2857.0144l3.9775-6.8891-1.5459-2.6776a6.9245,6.9245,0,0,1-2.7173.5522H129.8234a29.7874,29.7874,0,0,1-29.7546-29.7541A23.1518,23.1518,0,0,1,123.1926,26.459a18.4421,18.4421,0,0,1,18.42,18.42,15.1027,15.1027,0,0,1-15.0834,15.0855,6.9474,6.9474,0,0,1,0-13.8948,1.1913,1.1913,0,0,0,1.1887-1.1907,4.5305,4.5305,0,0,0-4.5252-4.5254,9.2405,9.2405,0,0,0-9.2291,9.2292,15.8761,15.8761,0,0,0,15.86,15.86h49.0573L141.097,0H47.0331L0,81.4623l47.0331,81.4624h68.1335A23.1636,23.1636,0,0,1,100.0688,141.24a29.7874,29.7874,0,0,1,29.7546-29.7546H170.796l5.3427-9.2537Z"/><line class="b" x1="130.3249" y1="162.9247" x2="115.1666" y2="162.9247"/><path class="b" d="M83.0258,88.337a29.787,29.787,0,0,0-29.7542,29.7542A23.1515,23.1515,0,0,0,76.3954,141.215a18.4418,18.4418,0,0,0,18.42-18.42,15.1027,15.1027,0,0,0-15.0855-15.0834,6.9474,6.9474,0,1,0,0,13.8948,1.1912,1.1912,0,0,1,1.1907,1.1886,4.53,4.53,0,0,1-4.5247,4.5253,9.24,9.24,0,0,1-9.229-9.229,15.8754,15.8754,0,0,1,15.8594-15.8594h93.1129l8.0139-13.88c-.0955-.0039-.1892-.0144-.2857-.0144Z"/><path class="b" d="M100.0688,141.24a23.1636,23.1636,0,0,0,15.0978,21.6846h15.1583a18.4483,18.4483,0,0,0,11.2876-16.9812,15.101,15.101,0,0,0-15.0834-15.0856,6.9474,6.9474,0,1,0,0,13.8948,1.1913,1.1913,0,0,1,1.1887,1.1908,4.53,4.53,0,0,1-4.5252,4.5251,9.24,9.24,0,0,1-9.2291-9.2285,15.8764,15.8764,0,0,1,15.86-15.86h32.95l8.0223-13.8947H129.8234A29.7874,29.7874,0,0,0,100.0688,141.24Z"/><path class="b" d="M113.9635,49.5828a9.2405,9.2405,0,0,1,9.2291-9.2292,4.5305,4.5305,0,0,1,4.5252,4.5254,1.1913,1.1913,0,0,1-1.1887,1.1907,6.9474,6.9474,0,0,0,0,13.8948A15.1027,15.1027,0,0,0,141.6125,44.879a18.4421,18.4421,0,0,0-18.42-18.42,23.1518,23.1518,0,0,0-23.1238,23.1238,29.7874,29.7874,0,0,0,29.7546,29.7541h54.0435a6.9245,6.9245,0,0,0,2.7173-.5522l-7.7035-13.3424H129.8234A15.8761,15.8761,0,0,1,113.9635,49.5828Z"/></svg>