<svg xmlns="http://www.w3.org/2000/svg" width="188.1301" height="162.9248" viewBox="0 0 188.1301 162.9248"><defs><style>.a{fill:#116eab;}.b{fill:#fff;}</style></defs><title>cooling_icon</title><path class="a" d="M114.8975,152.1062c-3.3545.8921-6.4964,1.7275-9.6383,2.5632a89.3478,89.3478,0,0,1-8.7317,2.2493,5.4345,5.4345,0,0,1-2.7331-10.4993c3.32-1.0195,6.6964-1.8574,10.0528-2.7578,5.9544-1.5973,11.916-3.1679,17.8616-4.7971a2.5409,2.5409,0,0,0,1.4276-.9861c3.8694-6.6053,7.6854-13.2419,11.5109-19.873.1221-.2115.2089-.4434.3725-.7957a9.4946,9.4946,0,0,0-.9773-.1064c-7.54-.0075-15.0794-.0269-22.6188.0248a2.8668,2.8668,0,0,0-1.7976.7943q-9.8878,9.792-19.7038,19.6568c-2.0929,2.0924-4.3848,2.66-6.6311,1.6432a5.4569,5.4569,0,0,1-1.6173-8.9147c2.5686-2.7,5.2454-5.2962,7.8851-7.9276,1.6671-1.6617,3.3535-3.3042,5.0313-4.9553l-.1107-.3312h-1.267c-6.7112.001-13.4249-.1065-20.1325.048-3.4358.0791-5.8719-1.0016-7.0712-4.3386v-2.4859c1.3069-3.3369,3.8507-4.3227,7.2766-4.2465,6.6223.1474,13.25.0424,19.8758.0422h1.2833l.1434-.3285c-.5389-.4984-1.095-.98-1.6139-1.498Q87.4,98.7186,81.8358,93.14a5.4681,5.4681,0,0,1-1.7739-4.58,5.1841,5.1841,0,0,1,3.5725-4.649,5.47,5.47,0,0,1,6.1,1.5827q9.9093,9.9412,19.8635,19.8378a2.69,2.69,0,0,0,1.6877.7469c7.5776.0493,15.1557.0341,22.7337.0294.3015,0,.6029-.0556.9849-.0932-.1192-.269-.171-.422-.25-.5592-3.8643-6.7034-7.72-13.4119-11.6234-20.0926a2.3632,2.3632,0,0,0-1.3275-.9255c-9.0957-2.4832-18.21-4.8975-27.2957-7.4177a7.17,7.17,0,0,1-3.0424-1.7618,5.2883,5.2883,0,0,1-.6195-6.4406,5.5067,5.5067,0,0,1,6.3676-2.3866c3.7629.9764,7.5088,2.0179,11.2646,3.0219,2.0623.5514,4.13,1.0829,6.4606,1.693-1.1053-1.9316-2.0619-3.6154-3.03-5.2926q-4.1574-7.2042-8.327-14.4012c-1.2892-2.2144-1.4782-4.4739.1743-6.48a14.4294,14.4294,0,0,1,3.269-2.2707h1.9887a7.0478,7.0478,0,0,1,4.2088,3.3952c3.5573,6.2593,7.1758,12.4839,10.7754,18.7193.1284.2221.3012.4189.5281.73.2505-.9171.4593-1.6724.6631-2.4287,1.3985-5.1919,2.72-10.406,4.22-15.5683a5.4043,5.4043,0,0,1,8.2927-3.0134c2.1117,1.3766,2.8424,3.7477,2.0492,6.714-2.3929,8.95-4.8057,17.8936-7.1577,26.8536a2.8681,2.8681,0,0,0,.2427,1.9468c3.0319,5.3688,6.1293,10.7007,9.2121,16.0407.84,1.4543,1.6923,2.901,2.599,4.4541.2741-.4207.466-.6869.6292-.9695,3.3307-5.7692,6.5348-11.6167,10.0467-17.2732a7.6448,7.6448,0,0,0,.8252-6.8034c-2.3661-8.2255-4.4911-16.521-6.6752-24.7984a5.4644,5.4644,0,1,1,10.45-3.1987c.9376,3.041,1.6877,6.14,2.5161,9.2143.7777,2.8865,1.5492,5.7747,2.3817,8.8792.2522-.3782.37-.5341.4662-.7019q3.3174-5.7522,6.6348-11.5043L141.097,0H47.0331L0,81.4624l47.0331,81.4624H108.716q2.7518-4.778,5.5044-9.5554C114.42,153.0229,114.5989,152.6648,114.8975,152.1062Z"/><path class="a" d="M122.1368,161.67q-.3625.6276-.7254,1.2549h4.5208c-.4562-1.69-.9233-3.4241-1.4367-5.3276C123.6107,159.1249,122.8724,160.3966,122.1368,161.67Z"/><path class="a" d="M174.4545,71.1362c2.3329-.6156,4.5261-1.1906,6.6942-1.7656l-2.8714-4.9735q-1.58,2.7379-3.1591,5.4769C174.9194,70.22,174.7461,70.58,174.4545,71.1362Z"/><path class="a" d="M165.74,86.0579c-3.6418,6.4041-7.3438,12.774-11.0245,19.156-.1219.2114-.2289.4316-.42.7943.4349.0406.7741.1,1.1133.1q9.25.0076,18.4994-.0135L188.13,81.4624l-1.295-2.2429Q177.498,81.7349,168.1476,84.2A3.559,3.559,0,0,0,165.74,86.0579Z"/><path class="a" d="M144.6646,122.6663c-1.2459,2.1466-2.428,4.1756-3.6026,6.2089-2.7336,4.7317-5.45,9.4734-8.2093,14.19a2.6292,2.6292,0,0,0-.2755,2.2156q2.3936,8.8164,4.7472,17.644h3.7726l13.426-23.2541c-3.0715-5.2552-6.1033-10.5337-9.1477-15.8047C145.17,123.5107,144.9574,123.16,144.6646,122.6663Z"/><path class="a" d="M154.9348,117.103c-.16,0-.32.0308-.5887.0584a6.8623,6.8623,0,0,0,.33.7976q3.091,5.3668,6.1866,10.7307L167.5541,117.1Q161.2445,117.0967,154.9348,117.103Z"/><path class="b" d="M155.4089,106.1082c-.3392,0-.6784-.0594-1.1133-.1.1912-.3627.2982-.5829.42-.7943,3.6807-6.382,7.3827-12.7519,11.0245-19.156A3.559,3.559,0,0,1,168.1476,84.2q9.3535-2.4533,18.6875-4.9809l-5.6864-9.8489c-2.1681.575-4.3613,1.15-6.6942,1.7656.2916-.5564.4649-.9166.6637-1.2622q1.5771-2.74,3.1591-5.4769l-6.3555-11.0078q-3.31,5.7567-6.6348,11.5043c-.0967.1678-.214.3237-.4662.7019-.8325-3.1045-1.604-5.9927-2.3817-8.8792-.8284-3.0745-1.5785-6.1733-2.5161-9.2143a5.4644,5.4644,0,1,0-10.45,3.1987c2.1841,8.2774,4.3091,16.5729,6.6752,24.7984a7.6448,7.6448,0,0,1-.8252,6.8034c-3.5119,5.6565-6.716,11.504-10.0467,17.2732-.1632.2826-.3551.5488-.6292.9695-.9067-1.5531-1.7594-3-2.599-4.4541-3.0828-5.34-6.18-10.6719-9.2121-16.0407a2.8681,2.8681,0,0,1-.2427-1.9468c2.352-8.96,4.7648-17.9041,7.1577-26.8536.7932-2.9663.0625-5.3374-2.0492-6.714a5.4043,5.4043,0,0,0-8.2927,3.0134c-1.5,5.1623-2.8211,10.3764-4.22,15.5683-.2038.7563-.4126,1.5116-.6631,2.4287-.2269-.3113-.4-.5081-.5281-.73-3.6-6.2354-7.2181-12.46-10.7754-18.7193a7.0478,7.0478,0,0,0-4.2088-3.3952h-1.9887a14.4294,14.4294,0,0,0-3.269,2.2707c-1.6525,2.0061-1.4635,4.2656-.1743,6.48q4.1851,7.188,8.327,14.4012c.9678,1.6772,1.9244,3.361,3.03,5.2926-2.3307-.61-4.3983-1.1416-6.4606-1.693-3.7558-1.004-7.5017-2.0455-11.2646-3.0219a5.5067,5.5067,0,0,0-6.3676,2.3866,5.2883,5.2883,0,0,0,.6195,6.4406A7.17,7.17,0,0,0,94.508,77.02c9.0853,2.52,18.2,4.9345,27.2957,7.4177a2.3632,2.3632,0,0,1,1.3275.9255c3.9035,6.6807,7.7591,13.3892,11.6234,20.0926.0791.1372.1309.29.25.5592-.382.0376-.6834.0931-.9849.0932-7.578.0047-15.1561.02-22.7337-.0294a2.69,2.69,0,0,1-1.6877-.7469q-9.9666-9.8839-19.8635-19.8378a5.47,5.47,0,0,0-6.1-1.5827,5.1841,5.1841,0,0,0-3.5725,4.649,5.4681,5.4681,0,0,0,1.7739,4.58q5.5761,5.5656,11.1383,11.1459c.5189.5184,1.075,1,1.6139,1.498l-.1434.3285H93.1613c-6.6256,0-13.2535.1052-19.8758-.0422-3.4259-.0762-5.97.91-7.2766,4.2465v2.4859c1.1993,3.337,3.6354,4.4177,7.0712,4.3386,6.7076-.1545,13.4213-.047,20.1325-.048H94.48l.1107.3312c-1.6778,1.6511-3.3642,3.2936-5.0313,4.9553-2.64,2.6314-5.3165,5.2281-7.8851,7.9276a5.4569,5.4569,0,0,0,1.6173,8.9147c2.2463,1.0166,4.5382.4492,6.6311-1.6432q9.8413-9.8389,19.7038-19.6568a2.8668,2.8668,0,0,1,1.7976-.7943c7.5394-.0517,15.0792-.0323,22.6188-.0248a9.4946,9.4946,0,0,1,.9773.1064c-.1636.3523-.25.5842-.3725.7957-3.8255,6.6311-7.6415,13.2677-11.5109,19.873a2.5409,2.5409,0,0,1-1.4276.9861c-5.9456,1.6292-11.9072,3.2-17.8616,4.7971-3.3564.9-6.7326,1.7383-10.0528,2.7578a5.4345,5.4345,0,0,0,2.7331,10.4993,89.3478,89.3478,0,0,0,8.7317-2.2493c3.1419-.8357,6.2838-1.6711,9.6383-2.5632-.2986.5586-.4776.9167-.6771,1.2632q-2.7513,4.7782-5.5044,9.5554h12.6954q.3624-.6277.7254-1.2549c.7356-1.2733,1.4739-2.545,2.3587-4.0727.5134,1.9035.98,3.6372,1.4367,5.3276h11.3922q-2.3664-8.8242-4.7472-17.644a2.6292,2.6292,0,0,1,.2755-2.2156c2.7594-4.7166,5.4757-9.4583,8.2093-14.19,1.1746-2.0333,2.3567-4.0623,3.6026-6.2089.2928.4937.5056.8444.7107,1.2,3.0444,5.271,6.0762,10.55,9.1477,15.8047l6.34-10.981q-3.0993-5.3617-6.1866-10.7307a6.8623,6.8623,0,0,1-.33-.7976c.2685-.0276.4286-.0584.5887-.0584q6.31-.0033,12.6193-.0027l6.3542-11.0056Q164.6587,106.128,155.4089,106.1082Z"/></svg>