<svg xmlns="http://www.w3.org/2000/svg" xmlns:xlink="http://www.w3.org/1999/xlink" width="188.1302" height="165.1023" viewBox="0 0 188.1302 165.1023"><defs><style>.a{fill:url(#a);}.b{fill:url(#b);}.c{fill:url(#c);}.d{fill:#fff;}</style><linearGradient id="a" x1="318.4553" y1="-122.6584" x2="-149.2597" y2="456.4182" gradientUnits="userSpaceOnUse"><stop offset="0" stop-color="#fbcb22"/><stop offset="1" stop-color="#e92d2e"/></linearGradient><linearGradient id="b" x1="299.5529" y1="-137.9257" x2="-168.1621" y2="441.1509" xlink:href="#a"/><linearGradient id="c" x1="282.4319" y1="-151.7541" x2="-185.2831" y2="427.3225" xlink:href="#a"/></defs><title>heating_icon</title><polygon class="a" points="87.684 162.925 88.465 162.925 88.131 161.672 87.684 162.925"/><path class="b" d="M68.3375,113.0923s-13.4094,24.2115,1.3162,49.8323H85.0293C75.1182,151.1042,64.8656,133.3956,68.3375,113.0923Z"/><path class="c" d="M188.13,81.4623,141.097,0H47.0333L0,81.4623l39.63,68.64a39.5747,39.5747,0,0,1,7.61-24.1171c-3.1971,7.5793.0273,21.4538,7.38,25.1018-18.75-17.961,25.3321-58.54-8.8577-68.6585,16.643-5.0113,29.9894,5.891,33.2206,19.1953-.7367-17.3614-20.5947-27.85-18.4536-49.4646C61.97,37.599,72.2579,29.345,81.9381,21.1526c-1.4069,4.5839-5.602,10.8235-5.9078,17.7189C75.148,58.9971,87.9819,71.46,101.3705,84.752c0,0-.2991-17.3091,10.5976-17.3091,0,0-9.6733,10.7018,8.14,38.739,6.782,10.2607,11.1674,22.5406,9.8148,38.9979a55.9317,55.9317,0,0,1-4.1952,17.7448H141.097Z"/><path class="d" d="M86.9066,165.1023l.7775-2.1777H85.0293Q85.9718,164.0484,86.9066,165.1023Z"/><path class="d" d="M120.1082,106.1819c-17.8134-28.0372-8.14-38.739-8.14-38.739-10.8967,0-10.5976,17.3091-10.5976,17.3091C87.9819,71.46,75.148,58.9971,76.03,38.8715c.3058-6.8954,4.5009-13.135,5.9078-17.7189C72.2579,29.345,61.97,37.599,60.5292,52.1594,58.3881,73.7737,78.2461,84.2626,78.9828,101.624,75.7516,88.32,62.4052,77.4174,45.7622,82.4287c34.19,10.1187-9.8921,50.6975,8.8577,68.6585-7.3528-3.648-10.5772-17.5225-7.38-25.1018a39.5747,39.5747,0,0,0-7.61,24.1171l7.403,12.8221h22.62c-14.7256-25.6208-1.3162-49.8323-1.3162-49.8323-3.4719,20.3033,6.7807,38.0119,16.6918,49.8323h2.6548l.4473-1.2527.3339,1.2527h37.2625A55.9317,55.9317,0,0,0,129.923,145.18C131.2756,128.7225,126.89,116.4426,120.1082,106.1819Z"/></svg>