<svg xmlns="http://www.w3.org/2000/svg" xmlns:xlink="http://www.w3.org/1999/xlink" width="735.5547" height="231.8298" viewBox="0 0 735.5547 231.8298"><defs><style>.a{fill:url(#a);}.b{fill:#116eab;}.c{fill:#00395e;}.d{fill:#fff;}.e{fill:#4d4d4d;}</style><linearGradient id="a" x1="282.4319" y1="-151.7541" x2="-185.2831" y2="427.3225" gradientUnits="userSpaceOnUse"><stop offset="0" stop-color="#fbcb22"/><stop offset="1" stop-color="#e92d2e"/></linearGradient></defs><title>logo</title><polygon class="a" points="47.033 162.925 0 81.462 47.033 0 141.097 0 188.13 81.462 141.097 162.925 47.033 162.925"/><polygon class="b" points="233.66 214.243 280.693 132.78 233.66 51.318 139.596 51.318 92.563 132.78 139.596 214.243 233.66 214.243"/><polygon class="c" points="92.563 132.78 109.967 162.925 141.097 162.925 188.13 81.462 170.726 51.318 139.596 51.318 92.563 132.78"/><polygon class="d" points="92.563 178.288 92.878 179.476 94.065 178.288 92.563 178.288"/><path class="d" d="M120.1082,106.182c-17.8134-28.0372-8.14-38.739-8.14-38.739-10.8967,0-10.5976,17.3091-10.5976,17.3091C87.9819,71.46,75.148,58.9971,76.03,38.8715c.3058-6.8954,4.5009-13.135,5.9078-17.7188C72.2579,29.345,61.97,37.5991,60.5292,52.16,58.3881,73.7737,78.2461,84.2626,78.9829,101.624,75.7516,88.32,62.4052,77.4174,45.7622,82.4288c34.19,10.1186-9.8921,50.6974,8.8578,68.6584-7.3529-3.6479-10.5773-17.5225-7.38-25.1017-16.704,23.6831-3.9,51.2779,18.0567,62.72-2.28-5.1426-3.6988-11.7016-.9039-18.1314,0,0,2.9674,10.0885,7.12,10.0885,2.3232,0,3.3468-4.8216,3.7994-9.5937-23.3718-28.3765-6.9749-57.9764-6.9749-57.9764-3.692,21.59,8.1359,40.2487,18.5691,52.01l1.2248-3.43,1.7808,6.68c2.7678,2.8724,5.2962,5.1854,7.2373,6.8521l2.2554-2.2559a27.5856,27.5856,0,0,1,1.555,5.34h0a27.8861,27.8861,0,0,1,0,11.0837,63.36,63.36,0,0,0,13.4593-10.2307c8.72-8.6267,14.2653-18.8166,15.5038-33.9615C131.2756,128.7226,126.89,116.4426,120.1082,106.182Z"/><path class="d" d="M274.91,94.02a2.0876,2.0876,0,0,0,.39.2482c3.7319,1.35,5.0679,4.8495,3.1151,8.3114-1.8712,3.3172-3.8031,6.6-5.7075,9.8987q-2.5149,4.356-5.0262,8.7141c-.1988.3455-.3721.7056-.6637,1.2621,2.8321-.7474,5.46-1.4348,8.0852-2.1352,3.1178-.8319,6.2693-1.5608,9.3391-2.5437a5.7349,5.7349,0,0,1,7.2419,3.8054c.8535,3.0216-.9832,5.906-4.3539,6.8186Q274.0313,132,260.7106,135.5182a3.5591,3.5591,0,0,0-2.4074,1.8574c-3.6417,6.4042-7.3438,12.7741-11.0245,19.1561-.122.2115-.2289.4316-.42.7943.4349.0406.7741.1,1.1133.1,7.54.0064,15.0795.0228,22.6189-.0254a2.69,2.69,0,0,0,1.6873-.7489q9.8815-9.7974,19.6971-19.6613c2.8439-2.8446,6.4873-2.8321,8.7554.0306,1.804,2.2768,1.4619,5.31-.9191,7.7077q-5.56,5.5992-11.1627,11.1567c-.43.4286-.909.8086-1.3653,1.2112l.16.3322h1.29c7.084.0008,14.168-.0175,21.2519.0094,4.3188.0164,7.0561,3.8159,5.4616,7.587a5.2839,5.2839,0,0,1-5.2943,3.3822q-10.75-.0075-21.5.0053c-.4009,0-.8017,0-1.4362,0,.3547.4244.5333.6743.7473.8888,4.0365,4.0473,8.1047,8.0636,12.1085,12.143,3.1787,3.2388,1.9364,8.2611-2.2918,9.3767a5.6467,5.6467,0,0,1-5.7218-1.8378q-9.9033-9.94-19.8586-19.8277a2.3775,2.3775,0,0,0-1.462-.71c-7.7465-.043-15.4934-.0286-23.24-.0249-.16,0-.32.0309-.5887.0585a6.8376,6.8376,0,0,0,.33.7976c3.7811,6.5648,7.5507,13.1363,11.385,19.67a3.0246,3.0246,0,0,0,1.66,1.2437c9.0181,2.4667,18.0571,4.857,27.0828,7.2964,4.5341,1.2254,6.01,6.2311,2.7708,9.3784a5.0893,5.0893,0,0,1-5.0483,1.3517c-5.5658-1.4449-11.117-2.9455-16.6742-4.4234-.3894-.1035-.7808-.2-1.4571-.3727.4542.8019.7838,1.3937,1.1225,1.98q5.0606,8.7651,10.1208,17.53c1.5086,2.6217,1.43,5.0726-.1785,6.9281a5.4661,5.4661,0,0,1-8.962-.8171c-2.0028-3.2868-3.8751-6.6532-5.8009-9.9868q-2.5158-4.3551-5.0246-8.7144c-.222-.3846-.4585-.761-.8382-1.3893-.5905,2.1938-1.1115,4.12-1.6274,6.0469-1.0263,3.8342-2.0167,7.6784-3.0832,11.5014-1.2645,4.5327-6.2666,6.008-9.3837,2.775-1.6331-1.6937-1.7661-3.7254-1.1773-5.9076,2.35-8.7082,4.6475-17.43,7.0416-26.1263a4.0664,4.0664,0,0,0-.4586-3.4669c-3.637-6.1692-7.1883-12.3891-10.77-18.5909-.2051-.3552-.4179-.7059-.7108-1.2-1.2458,2.1466-2.4279,4.1756-3.6025,6.2089-2.7336,4.7317-5.45,9.4735-8.2093,14.19a2.6291,2.6291,0,0,0-.2755,2.2154c2.4065,8.8647,4.7549,17.7452,7.1586,26.6106.6157,2.2708.5416,4.3736-1.1954,6.123a5.39,5.39,0,0,1-9.0519-2.0918c-1.1878-3.6994-2.07-7.4971-3.0847-11.2519-.61-2.2551-1.2171-4.5108-1.9083-7.0734-.8849,1.5277-1.6231,2.7994-2.3587,4.0727-3.0439,5.2692-6.0738,10.5464-9.1362,15.8048a5.4779,5.4779,0,0,1-6.1654,2.8843,5.3861,5.3861,0,0,1-3.7476-7.471c.9737-2.0945,2.2312-4.0586,3.3845-6.0679q3.8636-6.7315,7.7483-13.4507c.2-.3464.3785-.7046.677-1.2632-3.3544.8921-6.4963,1.7275-9.6382,2.5632a89.2619,89.2619,0,0,1-8.7317,2.2492,5.4345,5.4345,0,0,1-2.7331-10.4993c3.32-1.0194,6.6965-1.8573,10.0528-2.7576,5.9544-1.5974,11.916-3.168,17.8616-4.7972a2.5414,2.5414,0,0,0,1.4276-.9862c3.8694-6.6053,7.6854-13.2419,11.5109-19.8729.1221-.2115.2089-.4434.3725-.7956a9.4731,9.4731,0,0,0-.9772-.1066c-7.54-.0074-15.0795-.0268-22.6189.0248a2.8675,2.8675,0,0,0-1.7976.7944q-9.8879,9.7922-19.7038,19.6568c-2.0929,2.0924-4.3848,2.66-6.6311,1.6432a5.4569,5.4569,0,0,1-1.6173-8.9147c2.5686-2.7,5.2454-5.2962,7.8851-7.9275,1.6671-1.6619,3.3535-3.3043,5.0312-4.9554l-.1106-.3312h-1.267c-6.7112.001-13.4249-.1065-20.1325.0479-3.4358.0792-5.8719-1.0015-7.0712-4.3386v-2.4859c1.3069-3.3368,3.8507-4.3226,7.2766-4.2464,6.6223.1474,13.25.0425,19.8758.0422h1.2833l.1434-.3285c-.5389-.4984-1.0949-.98-1.6139-1.4981q-5.5745-5.5677-11.1383-11.1459a5.4678,5.4678,0,0,1-1.7739-4.58,5.1841,5.1841,0,0,1,3.5725-4.6489,5.47,5.47,0,0,1,6.1005,1.5826q9.9093,9.9414,19.8635,19.8378a2.69,2.69,0,0,0,1.6877.747c7.5776.0492,15.1557.0341,22.7338.0294.3014,0,.6028-.0556.9848-.0933-.1192-.2689-.171-.422-.25-.5592-3.8643-6.7034-7.72-13.4119-11.6233-20.0925a2.3637,2.3637,0,0,0-1.3276-.9255c-9.0957-2.4832-18.21-4.8975-27.2957-7.4177a7.17,7.17,0,0,1-3.0423-1.7618,5.2883,5.2883,0,0,1-.6195-6.4407,5.5068,5.5068,0,0,1,6.3676-2.3865c3.7628.9763,7.5087,2.0179,11.2645,3.0219,2.0623.5514,4.13,1.083,6.4606,1.693-1.1053-1.9317-2.0619-3.6154-3.03-5.2925q-4.1574-7.2043-8.327-14.4014c-1.2892-2.2142-1.4782-4.4738.1743-6.48a14.4294,14.4294,0,0,1,3.269-2.2707h1.9887a7.0478,7.0478,0,0,1,4.2088,3.3952c3.5573,6.2593,7.1758,12.4839,10.7754,18.7192.1284.2223.3012.419.5281.73.2506-.9171.4593-1.6723.6631-2.4288,1.3986-5.1917,2.72-10.4059,4.22-15.5682a5.4042,5.4042,0,0,1,8.2927-3.0134c2.1117,1.3766,2.8424,3.7477,2.0492,6.7141-2.3929,8.9493-4.8057,17.8935-7.1576,26.8536a2.8673,2.8673,0,0,0,.2426,1.9467c3.0319,5.3689,6.1293,10.7007,9.2121,16.0407.84,1.4543,1.6923,2.901,2.599,4.454.2741-.4206.4659-.6868.6292-.9695,3.3307-5.7691,6.5347-11.6167,10.0467-17.2732a7.644,7.644,0,0,0,.8251-6.8032c-2.366-8.2257-4.491-16.521-6.675-24.7984a5.4644,5.4644,0,1,1,10.45-3.1988c.9376,3.0409,1.6877,6.14,2.5161,9.2143.7777,2.8864,1.5492,5.7746,2.3817,8.8791.2522-.3781.37-.534.4663-.7018,3.4522-5.9862,6.9374-11.9539,10.3333-17.9719,1.12-1.9845,2.4441-3.6138,4.7379-4.22Z"/><path class="c" d="M315.0815,39.0664h20.97q8.4588,0,12.2847,4.14t3.8252,13.5v3.42q0,11.07-7.92,13.23a9.7529,9.7529,0,0,1,6.84,5.85q1.9791,4.59,1.98,12.15,0,12.3318-3.69,18.6748-3.6915,6.345-13.32,6.3452h-20.97Zm18.27,29.07a2.7192,2.7192,0,0,0,2.7-1.4849,9.8141,9.8141,0,0,0,.72-4.185v-7.74q0-3.78-3.33-3.78h-3.24v17.19Zm4.41,28.89v-9.63a10.8821,10.8821,0,0,0-1.0351-5.31,3.8479,3.8479,0,0,0-3.6451-1.8h-2.88v22.41l1.53.09Q337.76,102.7866,337.7617,97.0263Z"/><path class="c" d="M357.92,116.3764v-77.76h16.02v77.76Z"/><path class="c" d="M382.8042,112.6865q-2.7459-4.4085-2.7446-13.14v-49.05h15.84V99.7714a6.5741,6.5741,0,0,0,.855,3.87,3.1163,3.1163,0,0,0,2.6548,1.125,2.8406,2.8406,0,0,0,3.06-2.025,20.6138,20.6138,0,0,0,.63-5.8051v-.54l.09-45.9h15.66v65.88h-15.75v-7.02a14.48,14.48,0,0,1-3.78,5.94q-2.16,1.8-6.39,1.8Q385.5486,117.0966,382.8042,112.6865Z"/><path class="c" d="M429.0185,111.5166q-4.4106-5.58-4.41-16.65v-26.46q0-9.0887,5.22-13.86,5.2185-4.77,14.58-4.77,18.988,0,18.99,18.63v4.77q0,7.202-.18,11.7h-22.86v12.78a15.8388,15.8388,0,0,0,.72,5.355,3.4673,3.4673,0,0,0,5.625.8554,5.0506,5.0506,0,0,0,.9-2.475q.1347-1.3945.1353-4.0953v-6.39h15.66v3.78q0,11.5209-4.4551,16.9648-4.4546,5.4463-15.3447,5.4453Q433.4268,117.0966,429.0185,111.5166Zm18.72-34.47v-8.46q0-7.1089-3.51-7.11-3.9617,0-3.96,7.11v8.46Z"/><path class="c" d="M494.8525,111.7866q-5.0859-5.3094-5.0849-14.58v-35.64q0-11.52,4.59-17.37,4.59-5.8491,14.4-5.85,8.55,0,13.77,4.68t5.22,13.5v13.32h-15.39v-11.43q0-3.3289-.81-4.59a3.06,3.06,0,0,0-2.79-1.26,2.9161,2.9161,0,0,0-2.8349,1.44,9.2546,9.2546,0,0,0-.7647,4.23v38.79a8.4567,8.4567,0,0,0,.9,4.4551,2.995,2.995,0,0,0,2.7,1.395q3.5991,0,3.6-5.85v-13.95h15.57v14.58q0,19.4406-19.53,19.44Q499.9365,117.0966,494.8525,111.7866Z"/><path class="c" d="M532.2471,96.6665v-26.46q0-9.36,5.2651-14.895t14.4448-5.5352q9.18,0,14.4453,5.5352t5.2647,14.895v26.46q0,20.4315-19.71,20.43T532.2471,96.6665Zm22.5,6.93a6.59,6.59,0,0,0,.9-3.69v-32.22q0-5.7591-3.69-5.76t-3.69,5.76v32.22a6.5818,6.5818,0,0,0,.9,3.69,3.5588,3.5588,0,0,0,5.58,0Z"/><path class="c" d="M577.5166,50.4965h15.75v7.29a11.0736,11.0736,0,0,1,4.0952-5.9854,12.0445,12.0445,0,0,1,7.2451-2.1147v13.14a32.1555,32.1555,0,0,0-7.3354.9448q-4.0056.9449-4.0049,2.2051v50.4h-15.75Z"/><path class="c" d="M607.936,96.6665v-26.46q0-9.36,5.2652-14.895t14.4448-5.5352q9.18,0,14.4453,5.5352t5.2646,14.895v26.46q0,20.4315-19.71,20.43T607.936,96.6665Zm22.5,6.93a6.59,6.59,0,0,0,.9-3.69v-32.22q0-5.7591-3.69-5.76-3.6915,0-3.69,5.76v32.22a6.5818,6.5818,0,0,0,.9,3.69,3.5588,3.5588,0,0,0,5.58,0Z"/><path class="c" d="M653.2056,50.4965h15.75v8.37a14.0494,14.0494,0,0,1,3.42-6.57,8.59,8.59,0,0,1,6.48-2.52q6.66,0,9.8549,4.0952t3.1953,11.6548v50.85h-15.48v-49.23a7.4665,7.4665,0,0,0-.855-3.69,2.84,2.84,0,0,0-2.6553-1.53,3.0743,3.0743,0,0,0-3.1948,2.2051,18.46,18.46,0,0,0-.7651,5.895v46.35h-15.75Z"/><path class="c" d="M699.6,112.0112q-2.8346-5.083-2.835-14.5347,0-7.74,2.0254-11.88a13.2358,13.2358,0,0,1,5.625-6.0752,68.3718,68.3718,0,0,1,10.98-4.2749l4.32-1.44v-6.75a6.6456,6.6456,0,0,0-1.0351-4.0054,3.0254,3.0254,0,0,0-2.4746-1.395A2.779,2.779,0,0,0,714,62.8266a4.8677,4.8677,0,0,0-.9453,3.15v3.96h-15.3v-2.16q0-9.72,4.5449-13.86t14.8052-4.14q8.1885,0,13.32,4.2749t5.13,12.105v50.22h-15.66v-7.83a12.8934,12.8934,0,0,1-3.7353,6.3,8.9081,8.9081,0,0,1-6.0748,2.25Q702.4342,117.0966,699.6,112.0112Zm19.26-8.64a7.9031,7.9031,0,0,0,.7651-3.645v-18.36a11.9954,11.9954,0,0,0-5.1753,3.42,8.9553,8.9553,0,0,0-1.665,5.76v8.46q0,5.8514,3.51,5.85A2.66,2.66,0,0,0,718.86,103.3715Z"/><path class="e" d="M313.4858,169.8v-41.232h8.208v14.7359h3.8877V128.5678h8.208V169.8h-8.208V151.08h-3.8877V169.8Z"/><path class="e" d="M342.6694,169.8v-41.232h16.5117v7.9678h-8.1118v8.0161h7.7759v7.7759h-7.7759v9.456h8.64V169.8Z"/><path class="e" d="M366.5727,169.8l3.9839-41.232h13.9678L388.46,169.8h-7.8237l-.5762-6.6719h-4.9922l-.48,6.6719Zm9.12-13.2481h3.7441l-1.8242-20.9761h-.3838Z"/><path class="e" d="M399.74,169.8V136.4877h-4.896v-7.92h18.0479v7.92h-4.896V169.8Z"/><path class="e" d="M420.0439,169.8v-41.232h7.9683V169.8Z"/><path class="e" d="M436.5557,169.8v-41.232h8.4956l3.7919,19.728v-19.728h7.9683V169.8h-8.064L444.62,149.16V169.8Z"/><path class="e" d="M467.5386,167.04q-2.1849-3.1435-2.1841-9.5283v-17.76q0-5.7121,2.5444-8.64t7.584-2.9283a10.67,10.67,0,0,1,6.3359,1.6324,8.396,8.396,0,0,1,3.12,4.7519,30.7716,30.7716,0,0,1,.8642,8.0161h-8.0639v-3.6963a5.269,5.269,0,0,0-.4082-2.3037,1.4923,1.4923,0,0,0-1.4639-.8164q-2.3526,0-2.3521,3.0723v19.9678a6.5356,6.5356,0,0,0,.48,2.832,1.95,1.95,0,0,0,3.36,0,6.5431,6.5431,0,0,0,.48-2.832v-5.9038h-2.208V145.8h10.08v24h-3.312l-1.3916-3.4561a7.3292,7.3292,0,0,1-6.8164,3.84A7.5462,7.5462,0,0,1,467.5386,167.04Z"/><path class="e" d="M511.5776,167.64a11.3886,11.3886,0,0,1-1.92-6.8638,17.9174,17.9174,0,0,1,1.3442-7.56,13.4328,13.4328,0,0,1,4.2237-5.0161,18.1536,18.1536,0,0,1-2.3516-7.9678,6.9172,6.9172,0,0,1,2.28-5.4961,8.6128,8.6128,0,0,1,5.88-1.9922,8.8171,8.8171,0,0,1,5.832,1.896,6.5206,6.5206,0,0,1,2.28,5.3042q0,4.9929-5.52,9.36l1.4878,3.5039a11.8048,11.8048,0,0,1,4.0322-5.52l3.2637,5.0884q-2.8323,2.2083-4.608,7.2959L531.978,169.8H524.01l-.8638-2.2559a7.7874,7.7874,0,0,1-2.5684,1.9678,7.56,7.56,0,0,1-3.3838.768A6.5068,6.5068,0,0,1,511.5776,167.64Zm8.4483-4.0557a3.4331,3.4331,0,0,0,.8159-1.6084L518.01,155.16l-.2881.4321a5.1616,5.1616,0,0,0-.6241,1.8243,12.9425,12.9425,0,0,0-.24,2.4477v.24a12.8563,12.8563,0,0,0,.2881,3.0239A1.3092,1.3092,0,0,0,518.49,164.28,1.9847,1.9847,0,0,0,520.0259,163.5839Zm1.872-20.2324a4.8973,4.8973,0,0,0,.8638-1.5117,5.2062,5.2062,0,0,0,.3843-1.896,1.2521,1.2521,0,0,0-1.3921-1.44,1.12,1.12,0,0,0-.9121.4077,1.5712,1.5712,0,0,0-.336,1.0322,12.0416,12.0416,0,0,0,1.0079,3.84Z"/><path class="e" d="M558.9766,167.3515a10.7743,10.7743,0,0,1-2.7125-7.7759V140.5678q0-6.1435,2.4483-9.2641t7.68-3.12a10.59,10.59,0,0,1,7.3437,2.4961q2.7832,2.4969,2.7842,7.2v7.104h-8.208v-6.0962a4.8818,4.8818,0,0,0-.4321-2.4477,1.6327,1.6327,0,0,0-1.4878-.6724,1.5556,1.5556,0,0,0-1.5122.7681,4.9312,4.9312,0,0,0-.4082,2.2563V159.48a4.5167,4.5167,0,0,0,.48,2.376,1.5982,1.5982,0,0,0,1.4405.7437q1.919,0,1.92-3.12v-7.44h8.3037v7.7759q0,10.3682-10.416,10.3676A9.532,9.532,0,0,1,558.9766,167.3515Z"/><path class="e" d="M586.8408,167.1357q-2.592-3.0476-2.5923-8.5679V138.936q0-5.3285,2.5923-8.04t7.584-2.7124q4.9914,0,7.584,2.7124t2.5918,8.04v19.6318q0,5.5686-2.5918,8.5918t-7.584,3.0239Q589.4319,170.1835,586.8408,167.1357Zm9.0718-5.4961a7.4791,7.4791,0,0,0,.3843-2.688v-20.16a5.6016,5.6016,0,0,0-.36-2.184,1.4294,1.4294,0,0,0-1.4639-.84q-2.0639,0-2.0639,3.12V159a6.51,6.51,0,0,0,.4321,2.688,1.5941,1.5941,0,0,0,1.584.9117A1.4584,1.4584,0,0,0,595.9126,161.64Z"/><path class="e" d="M615.4,167.1357q-2.592-3.0476-2.5923-8.5679V138.936q0-5.3285,2.5923-8.04t7.584-2.7124q4.9914,0,7.5839,2.7124t2.5918,8.04v19.6318q0,5.5686-2.5918,8.5918t-7.5839,3.0239Q617.9914,170.1835,615.4,167.1357Zm9.0718-5.4961a7.4794,7.4794,0,0,0,.3842-2.688v-20.16a5.6017,5.6017,0,0,0-.36-2.184,1.43,1.43,0,0,0-1.4639-.84q-2.064,0-2.064,3.12V159a6.5094,6.5094,0,0,0,.4322,2.688,1.5941,1.5941,0,0,0,1.584.9117A1.4584,1.4584,0,0,0,624.4722,161.64Z"/><path class="e" d="M641.7041,169.8v-41.232H649.96v34.2241h8.4961V169.8Z"/><path class="e" d="M665.6074,169.8v-41.232h7.9683V169.8Z"/><path class="e" d="M682.1191,169.8v-41.232h8.4956l3.792,19.728v-19.728h7.9683V169.8h-8.064l-4.1279-20.64V169.8Z"/><path class="e" d="M713.102,167.04q-2.1848-3.1435-2.184-9.5283v-17.76q0-5.7121,2.5444-8.64t7.584-2.9283a10.67,10.67,0,0,1,6.3359,1.6324,8.3958,8.3958,0,0,1,3.12,4.7519,30.7667,30.7667,0,0,1,.8643,8.0161h-8.064v-3.6963a5.2675,5.2675,0,0,0-.4082-2.3037,1.4921,1.4921,0,0,0-1.4638-.8164q-2.3526,0-2.3521,3.0723v19.9678a6.5356,6.5356,0,0,0,.48,2.832,1.95,1.95,0,0,0,3.36,0,6.5433,6.5433,0,0,0,.48-2.832v-5.9038H721.19V145.8h10.08v24h-3.312l-1.3916-3.4561a7.3293,7.3293,0,0,1-6.8164,3.84A7.5465,7.5465,0,0,1,713.102,167.04Z"/></svg>