<svg xmlns="http://www.w3.org/2000/svg" xmlns:xlink="http://www.w3.org/1999/xlink" width="735.5547" height="214.2425" viewBox="0 0 735.5547 214.2425"><defs><style>.a{fill:#fff;}.b{fill:url(#a);}.c{fill:url(#b);}.d{fill:#116eab;}.e{fill:#00395e;}.f{fill:#5692b9;}</style><linearGradient id="a" x1="299.553" y1="-137.9256" x2="-168.162" y2="441.151" gradientUnits="userSpaceOnUse"><stop offset="0" stop-color="#fbcb22"/><stop offset="1" stop-color="#e92d2e"/></linearGradient><linearGradient id="b" x1="282.4319" y1="-151.7541" x2="-185.283" y2="427.3225" xlink:href="#a"/></defs><title>logo footer</title><polygon class="a" points="92.563 178.288 92.878 179.476 94.065 178.288 92.563 178.288"/><path class="b" d="M68.3375,113.0923s-13.4093,24.2116,1.3163,49.8323H85.0294C75.1183,151.1044,64.8656,133.3957,68.3375,113.0923Z"/><path class="c" d="M188.13,81.4623,141.097,0H47.0333L0,81.4623l39.63,68.64a39.5736,39.5736,0,0,1,7.61-24.1171c-3.1972,7.5791.0273,21.4538,7.38,25.1016-18.75-17.9609,25.332-58.54-8.8577-68.6583,16.6429-5.0114,29.9893,5.891,33.2206,19.1952-.7368-17.3614-20.5947-27.85-18.4537-49.4646C61.97,37.5991,72.258,29.345,81.9381,21.1526c-1.4069,4.5839-5.602,10.8234-5.9078,17.7189-.8822,20.1256,11.9516,32.5884,25.34,45.8805,0,0-.2991-17.309,10.5977-17.309,0,0-9.6733,10.7017,8.14,38.739,6.782,10.2606,11.1674,22.5406,9.8148,38.9979a55.9338,55.9338,0,0,1-4.1951,17.7447H141.097Z"/><path class="a" d="M120.1082,106.182c-17.8133-28.0373-8.14-38.739-8.14-38.739-10.8968,0-10.5977,17.309-10.5977,17.309C87.9819,71.46,75.1481,58.9971,76.03,38.8715c.3058-6.8955,4.5009-13.135,5.9078-17.7189C72.258,29.345,61.97,37.5991,60.5292,52.1594c-2.141,21.6143,17.7169,32.1032,18.4537,49.4646C75.7516,88.32,62.4052,77.4174,45.7623,82.4288c34.19,10.1186-9.8922,50.6974,8.8577,68.6583-7.3528-3.6478-10.5773-17.5225-7.38-25.1016a39.5736,39.5736,0,0,0-7.61,24.1171l7.403,12.822H69.6538c-14.7256-25.6207-1.3163-49.8323-1.3163-49.8323-3.4719,20.3034,6.7808,38.0121,16.6919,49.8323h2.6548l.4473-1.2527.3339,1.2527h37.2625A55.9338,55.9338,0,0,0,129.923,145.18C131.2756,128.7226,126.89,116.4426,120.1082,106.182Z"/><path class="d" d="M214.7,212.9877q-.3626.6273-.7253,1.2548h4.5207c-.4563-1.69-.9232-3.424-1.4367-5.3275C216.1736,210.4426,215.4354,211.7143,214.7,212.9877Z"/><path class="d" d="M207.46,203.424c-3.3543.8921-6.4963,1.7274-9.6381,2.5632a89.3261,89.3261,0,0,1-8.7317,2.2492,5.4345,5.4345,0,0,1-2.7331-10.4993c3.32-1.0194,6.6964-1.8573,10.0527-2.7577,5.9544-1.5974,11.916-3.1679,17.8617-4.7971a2.5407,2.5407,0,0,0,1.4275-.9862c3.8694-6.6053,7.6855-13.2418,11.511-19.8729.122-.2116.2089-.4434.3724-.7957a9.4955,9.4955,0,0,0-.9772-.1065c-7.54-.0075-15.0795-.0268-22.6188.0247a2.8676,2.8676,0,0,0-1.7977.7945q-9.8879,9.792-19.7038,19.6568c-2.0928,2.0924-4.3848,2.66-6.6311,1.6432a5.457,5.457,0,0,1-1.6173-8.9148c2.5686-2.6994,5.2455-5.2961,7.8852-7.9275,1.667-1.6618,3.3534-3.3042,5.0312-4.9553l-.1106-.3313h-1.2671c-6.7111.001-13.4248-.1064-20.1325.048-3.4358.0792-5.8719-1.0016-7.0712-4.3386v-2.4859c1.3069-3.3368,3.8508-4.3226,7.2767-4.2464,6.6222.1474,13.25.0424,19.8757.0422h1.2833l.1435-.3286c-.539-.4983-1.095-.98-1.614-1.4981q-5.5743-5.5676-11.1383-11.1458a5.4678,5.4678,0,0,1-1.7739-4.58,5.1842,5.1842,0,0,1,3.5725-4.649,5.4706,5.4706,0,0,1,6.1005,1.5827q9.9093,9.9413,19.8635,19.8377a2.69,2.69,0,0,0,1.6877.7471c7.5777.0492,15.1558.0339,22.7338.0293.3014,0,.6028-.0555.9848-.0933-.1192-.2689-.1709-.4218-.25-.5592-3.8643-6.7033-7.72-13.4118-11.6233-20.0924a2.3634,2.3634,0,0,0-1.3275-.9255c-9.0958-2.4833-18.21-4.8976-27.2958-7.4177a7.1687,7.1687,0,0,1-3.0423-1.7619,5.2881,5.2881,0,0,1-.6195-6.4406,5.507,5.507,0,0,1,6.3676-2.3866c3.7629.9764,7.5088,2.018,11.2645,3.0219,2.0623.5515,4.13,1.083,6.4607,1.693-1.1053-1.9316-2.0619-3.6153-3.03-5.2925q-4.1574-7.2042-8.327-14.4013c-1.2892-2.2143-1.4781-4.4738.1743-6.48a14.4215,14.4215,0,0,1,3.2691-2.2707h1.9887a7.0476,7.0476,0,0,1,4.2088,3.3951c3.5572,6.2594,7.1758,12.484,10.7754,18.7193.1283.2223.3011.419.528.73.2506-.9172.4594-1.6724.6631-2.4288,1.3986-5.1917,2.72-10.4059,4.22-15.5682a5.4042,5.4042,0,0,1,8.2927-3.0134c2.1116,1.3765,2.8423,3.7477,2.0491,6.714-2.3929,8.9494-4.8057,17.8936-7.1576,26.8536a2.8672,2.8672,0,0,0,.2427,1.9467c3.0318,5.3689,6.1292,10.7007,9.2121,16.0408.8395,1.4543,1.6922,2.9009,2.599,4.454.2741-.4206.4658-.6868.6291-.9695,3.3308-5.7691,6.5347-11.6167,10.0467-17.2732a7.644,7.644,0,0,0,.8252-6.8032c-2.3661-8.2258-4.4911-16.521-6.6751-24.7984a5.4644,5.4644,0,1,1,10.45-3.1988c.9376,3.0409,1.6877,6.14,2.5161,9.2142.7777,2.8865,1.5492,5.7747,2.3817,8.8791.2522-.378.37-.5339.4663-.7017q3.3173-5.7522,6.6348-11.5043L233.66,51.3179H139.5962L92.563,132.78l47.0332,81.4623h61.6829q2.7517-4.7778,5.5043-9.5553C206.9829,204.3408,207.1619,203.9826,207.46,203.424Z"/><path class="d" d="M258.3032,137.3757c-3.6417,6.404-7.3437,12.7739-11.0245,19.156-.122.2114-.2288.4316-.42.7942.4349.0406.7741.1,1.1134.1q9.25.0079,18.4994-.0133L280.6932,132.78l-1.295-2.243q-9.3372,2.5153-18.6876,4.981A3.5589,3.5589,0,0,0,258.3032,137.3757Z"/><path class="d" d="M267.0175,122.4539c2.3329-.6156,4.5262-1.19,6.6944-1.7655l-2.8716-4.9736q-1.58,2.7381-3.159,5.477C267.4824,121.5373,267.3091,121.8975,267.0175,122.4539Z"/><path class="d" d="M237.2276,173.9841c-1.2458,2.1466-2.4279,4.1755-3.6026,6.209-2.7336,4.7316-5.45,9.4733-8.2092,14.19a2.6293,2.6293,0,0,0-.2755,2.2156q2.3934,8.8166,4.7472,17.6439H233.66l13.4261-23.254c-3.0716-5.2552-6.1034-10.5337-9.1477-15.8048C237.7332,174.8286,237.52,174.4777,237.2276,173.9841Z"/><path class="d" d="M247.4978,168.4207c-.16,0-.32.0309-.5887.0585a6.8269,6.8269,0,0,0,.33.7976q3.0909,5.3667,6.1866,10.7307l6.6912-11.5893Q253.8076,168.4144,247.4978,168.4207Z"/><path class="a" d="M247.972,157.4258c-.3393,0-.6785-.0593-1.1134-.1.1913-.3626.2981-.5828.42-.7942,3.6808-6.3821,7.3828-12.752,11.0245-19.156a3.5589,3.5589,0,0,1,2.4074-1.8575q9.3537-2.4531,18.6876-4.981l-5.6863-9.8488c-2.1682.575-4.3615,1.15-6.6944,1.7655.2916-.5564.4649-.9166.6638-1.2621q1.5769-2.74,3.159-5.477l-6.3554-11.0077q-3.31,5.7564-6.6348,11.5043c-.0967.1678-.2141.3237-.4663.7017-.8325-3.1044-1.604-5.9926-2.3817-8.8791-.8284-3.0745-1.5785-6.1733-2.5161-9.2142a5.4644,5.4644,0,1,0-10.45,3.1988c2.184,8.2774,4.309,16.5726,6.6751,24.7984a7.644,7.644,0,0,1-.8252,6.8032c-3.512,5.6565-6.7159,11.5041-10.0467,17.2732-.1633.2827-.355.5489-.6291.9695-.9068-1.5531-1.76-3-2.599-4.454-3.0829-5.34-6.18-10.6719-9.2121-16.0408a2.8672,2.8672,0,0,1-.2427-1.9467c2.3519-8.96,4.7647-17.9042,7.1576-26.8536.7932-2.9663.0625-5.3375-2.0491-6.714a5.4042,5.4042,0,0,0-8.2927,3.0134c-1.5,5.1623-2.8211,10.3765-4.22,15.5682-.2037.7564-.4125,1.5116-.6631,2.4288-.2269-.3113-.4-.508-.528-.73-3.6-6.2353-7.2182-12.46-10.7754-18.7193a7.0476,7.0476,0,0,0-4.2088-3.3951h-1.9887A14.4215,14.4215,0,0,0,196.32,96.29c-1.6524,2.0061-1.4635,4.2656-.1743,6.48q4.1852,7.188,8.327,14.4013c.9679,1.6772,1.9245,3.3609,3.03,5.2925-2.3308-.61-4.3984-1.1415-6.4607-1.693-3.7557-1.0039-7.5016-2.0455-11.2645-3.0219a5.507,5.507,0,0,0-6.3676,2.3866,5.2881,5.2881,0,0,0,.6195,6.4406,7.1687,7.1687,0,0,0,3.0423,1.7619c9.0854,2.52,18.2,4.9344,27.2958,7.4177a2.3634,2.3634,0,0,1,1.3275.9255c3.9034,6.6806,7.759,13.3891,11.6233,20.0924.0792.1374.1309.29.25.5592-.382.0378-.6834.0932-.9848.0933-7.578.0046-15.1561.02-22.7338-.0293a2.69,2.69,0,0,1-1.6877-.7471q-9.9666-9.8837-19.8635-19.8377a5.4706,5.4706,0,0,0-6.1005-1.5827,5.1842,5.1842,0,0,0-3.5725,4.649,5.4678,5.4678,0,0,0,1.7739,4.58q5.5763,5.5657,11.1383,11.1458c.519.5185,1.075,1,1.614,1.4981l-.1435.3286h-1.2833c-6.6255,0-13.2535.1052-19.8757-.0422-3.4259-.0762-5.97.91-7.2767,4.2464v2.4859c1.1993,3.337,3.6354,4.4178,7.0712,4.3386,6.7077-.1544,13.4214-.047,20.1325-.048h1.2671l.1106.3313c-1.6778,1.6511-3.3642,3.2935-5.0312,4.9553-2.64,2.6314-5.3166,5.2281-7.8852,7.9275a5.457,5.457,0,0,0,1.6173,8.9148c2.2463,1.0166,4.5383.4492,6.6311-1.6432q9.8414-9.8391,19.7038-19.6568a2.8676,2.8676,0,0,1,1.7977-.7945c7.5393-.0515,15.0791-.0322,22.6188-.0247a9.4955,9.4955,0,0,1,.9772.1065c-.1635.3523-.25.5841-.3724.7957-3.8255,6.6311-7.6416,13.2676-11.511,19.8729a2.5407,2.5407,0,0,1-1.4275.9862c-5.9457,1.6292-11.9073,3.2-17.8617,4.7971-3.3563.9-6.7325,1.7383-10.0527,2.7577a5.4345,5.4345,0,0,0,2.7331,10.4993,89.3261,89.3261,0,0,0,8.7317-2.2492c3.1418-.8358,6.2838-1.6711,9.6381-2.5632-.2985.5586-.4775.9168-.677,1.2632q-2.7513,4.7781-5.5043,9.5553h12.6954q.3622-.6277.7253-1.2548c.7356-1.2734,1.4738-2.5451,2.3587-4.0727.5135,1.9035.98,3.6372,1.4367,5.3275h11.3923q-2.3664-8.824-4.7472-17.6439a2.6293,2.6293,0,0,1,.2755-2.2156c2.7593-4.7166,5.4756-9.4583,8.2092-14.19,1.1747-2.0335,2.3568-4.0624,3.6026-6.209.2928.4936.5056.8445.7108,1.2,3.0443,5.2711,6.0761,10.55,9.1477,15.8048l6.34-10.981q-3.0994-5.3619-6.1866-10.7307a6.8269,6.8269,0,0,1-.33-.7976c.2686-.0276.4286-.0584.5887-.0585q6.31-.0032,12.6194-.0025l6.3542-11.0057Q257.2218,157.4459,247.972,157.4258Z"/><polygon class="e" points="92.563 132.78 109.967 162.925 141.097 162.925 188.13 81.462 170.726 51.318 139.596 51.318 92.563 132.78"/><path class="a" d="M315.0815,39.0663h20.97q8.4586,0,12.2846,4.14t3.8252,13.5v3.42q0,11.07-7.92,13.23a9.7529,9.7529,0,0,1,6.84,5.85q1.9791,4.59,1.98,12.15,0,12.3318-3.69,18.6748-3.6915,6.345-13.32,6.3452h-20.97Zm18.27,29.07a2.72,2.72,0,0,0,2.7-1.4849,9.8163,9.8163,0,0,0,.72-4.1851v-7.74q0-3.78-3.33-3.78h-3.24v17.19Zm4.41,28.89v-9.63a10.8821,10.8821,0,0,0-1.0351-5.31,3.8479,3.8479,0,0,0-3.6451-1.8h-2.88v22.41l1.53.09Q337.76,102.7866,337.7617,97.0263Z"/><path class="a" d="M357.92,116.3764v-77.76h16.02v77.76Z"/><path class="a" d="M382.8042,112.6865q-2.7459-4.4085-2.7446-13.14v-49.05h15.84V99.7714a6.5735,6.5735,0,0,0,.855,3.87,3.116,3.116,0,0,0,2.6548,1.125,2.8406,2.8406,0,0,0,3.06-2.0249,20.6143,20.6143,0,0,0,.63-5.8051v-.54l.09-45.9h15.66v65.88h-15.75v-7.02a14.48,14.48,0,0,1-3.78,5.94q-2.16,1.8-6.39,1.8Q385.5486,117.0966,382.8042,112.6865Z"/><path class="a" d="M429.0186,111.5165q-4.4108-5.58-4.41-16.65v-26.46q0-9.0887,5.22-13.86,5.2185-4.77,14.58-4.77,18.988,0,18.99,18.63v4.77q0,7.202-.18,11.7h-22.86v12.78a15.8413,15.8413,0,0,0,.72,5.355,3.4673,3.4673,0,0,0,5.625.8554,5.0506,5.0506,0,0,0,.9-2.4751q.1348-1.3944.1353-4.0952v-6.39h15.66v3.78q0,11.5209-4.455,16.9648-4.4547,5.4463-15.3448,5.4453Q433.4268,117.0966,429.0186,111.5165Zm18.72-34.47v-8.46q0-7.1089-3.51-7.11-3.9617,0-3.96,7.11v8.46Z"/><path class="a" d="M494.8525,111.7866q-5.0859-5.3094-5.0849-14.58v-35.64q0-11.5194,4.59-17.37,4.59-5.8491,14.4-5.85,8.55,0,13.77,4.68t5.22,13.5v13.32h-15.39v-11.43q0-3.3288-.81-4.59a3.06,3.06,0,0,0-2.79-1.26,2.9161,2.9161,0,0,0-2.8349,1.44,9.2546,9.2546,0,0,0-.7647,4.23v38.79a8.4567,8.4567,0,0,0,.9,4.4551,2.995,2.995,0,0,0,2.7,1.395q3.5991,0,3.6-5.85v-13.95h15.57v14.58q0,19.4406-19.53,19.44Q499.9365,117.0966,494.8525,111.7866Z"/><path class="a" d="M532.2471,96.6664v-26.46q0-9.36,5.2651-14.895t14.4448-5.5352q9.18,0,14.4453,5.5352t5.2647,14.895v26.46q0,20.4317-19.71,20.43T532.2471,96.6664Zm22.5,6.93a6.59,6.59,0,0,0,.9-3.69v-32.22q0-5.7591-3.69-5.76t-3.69,5.76v32.22a6.5818,6.5818,0,0,0,.9,3.69,3.5588,3.5588,0,0,0,5.58,0Z"/><path class="a" d="M577.5166,50.4965h15.75v7.29a11.0736,11.0736,0,0,1,4.0952-5.9854,12.0445,12.0445,0,0,1,7.2451-2.1147v13.14a32.15,32.15,0,0,0-7.3354.9448q-4.0056.9449-4.0049,2.2051v50.4h-15.75Z"/><path class="a" d="M607.936,96.6664v-26.46q0-9.36,5.2652-14.895t14.4448-5.5352q9.18,0,14.4453,5.5352t5.2647,14.895v26.46q0,20.4317-19.71,20.43T607.936,96.6664Zm22.5,6.93a6.5892,6.5892,0,0,0,.9-3.69v-32.22q0-5.7591-3.69-5.76t-3.69,5.76v32.22a6.5818,6.5818,0,0,0,.9,3.69,3.5587,3.5587,0,0,0,5.58,0Z"/><path class="a" d="M653.2056,50.4965h15.75v8.37a14.05,14.05,0,0,1,3.42-6.57,8.59,8.59,0,0,1,6.48-2.52q6.66,0,9.8549,4.0952t3.1954,11.6548v50.85h-15.48v-49.23a7.4665,7.4665,0,0,0-.855-3.69,2.84,2.84,0,0,0-2.6553-1.53,3.0742,3.0742,0,0,0-3.1948,2.2051,18.4633,18.4633,0,0,0-.7651,5.895v46.35h-15.75Z"/><path class="a" d="M699.6,112.0112q-2.8344-5.083-2.835-14.5347,0-7.74,2.0254-11.88a13.2358,13.2358,0,0,1,5.625-6.0752,68.3718,68.3718,0,0,1,10.98-4.2749l4.32-1.44v-6.75a6.6456,6.6456,0,0,0-1.0351-4.0054,3.0253,3.0253,0,0,0-2.4746-1.395A2.779,2.779,0,0,0,714,62.8266a4.8677,4.8677,0,0,0-.9453,3.15v3.96h-15.3v-2.16q0-9.72,4.5449-13.86t14.8052-4.14q8.1885,0,13.32,4.2749t5.13,12.105v50.22h-15.66v-7.83a12.8927,12.8927,0,0,1-3.7353,6.3,8.908,8.908,0,0,1-6.0747,2.25Q702.4341,117.0966,699.6,112.0112Zm19.26-8.64a7.9034,7.9034,0,0,0,.7651-3.645v-18.36a11.9945,11.9945,0,0,0-5.1753,3.42,8.9553,8.9553,0,0,0-1.665,5.76v8.46q0,5.8514,3.51,5.85A2.66,2.66,0,0,0,718.86,103.3715Z"/><path class="f" d="M313.4858,169.8V128.5678h8.208v14.7358h3.8877V128.5678H333.79V169.8h-8.2081V151.08h-3.8877V169.8Z"/><path class="f" d="M342.6694,169.8V128.5678h16.5118v7.9678h-8.1119v8.0161h7.7759v7.7759h-7.7759v9.456h8.64V169.8Z"/><path class="f" d="M366.5728,169.8l3.9838-41.2319h13.9678L388.46,169.8h-7.8237l-.5762-6.6718h-4.9921l-.48,6.6718Zm9.12-13.248h3.7441l-1.8242-20.9761h-.3838Z"/><path class="f" d="M399.74,169.8v-33.312h-4.8959v-7.92h18.0478v7.92h-4.896V169.8Z"/><path class="f" d="M420.0439,169.8V128.5678h7.9683V169.8Z"/><path class="f" d="M436.5557,169.8V128.5678h8.4956l3.792,19.728v-19.728h7.9682V169.8h-8.0639l-4.128-20.64V169.8Z"/><path class="f" d="M467.5386,167.04q-2.1849-3.1435-2.1841-9.5283v-17.76q0-5.7121,2.5444-8.64t7.584-2.9283a10.67,10.67,0,0,1,6.3359,1.6324,8.396,8.396,0,0,1,3.12,4.7519,30.7716,30.7716,0,0,1,.8642,8.0161h-8.0639v-3.6963a5.2675,5.2675,0,0,0-.4082-2.3037,1.4923,1.4923,0,0,0-1.4639-.8164q-2.3526,0-2.3521,3.0723v19.9678a6.5356,6.5356,0,0,0,.48,2.832,1.95,1.95,0,0,0,3.36,0,6.5431,6.5431,0,0,0,.48-2.832v-5.9039h-2.208V145.8h10.08v24h-3.312l-1.3916-3.456a7.3292,7.3292,0,0,1-6.8164,3.84A7.5462,7.5462,0,0,1,467.5386,167.04Z"/><path class="f" d="M511.5776,167.64a11.3886,11.3886,0,0,1-1.92-6.8638,17.9157,17.9157,0,0,1,1.3443-7.56,13.4336,13.4336,0,0,1,4.2236-5.0162,18.1529,18.1529,0,0,1-2.3516-7.9677,6.9172,6.9172,0,0,1,2.28-5.4961,8.6123,8.6123,0,0,1,5.88-1.9922,8.8171,8.8171,0,0,1,5.832,1.896,6.52,6.52,0,0,1,2.28,5.3042q0,4.9929-5.52,9.36l1.4878,3.504a11.8048,11.8048,0,0,1,4.0322-5.52l3.2637,5.0884q-2.8323,2.2083-4.6079,7.2959L531.978,169.8H524.01l-.8638-2.2558a7.7874,7.7874,0,0,1-2.5684,1.9678,7.56,7.56,0,0,1-3.3838.768A6.507,6.507,0,0,1,511.5776,167.64Zm8.4483-4.0557a3.4331,3.4331,0,0,0,.8159-1.6084L518.01,155.16l-.2881.4321a5.16,5.16,0,0,0-.624,1.8243,12.9346,12.9346,0,0,0-.24,2.4477v.24a12.8567,12.8567,0,0,0,.2881,3.024A1.3092,1.3092,0,0,0,518.49,164.28,1.9847,1.9847,0,0,0,520.0259,163.5839Zm1.872-20.2324a4.8973,4.8973,0,0,0,.8638-1.5117,5.2062,5.2062,0,0,0,.3843-1.896,1.2522,1.2522,0,0,0-1.3921-1.44,1.12,1.12,0,0,0-.9121.4078,1.5712,1.5712,0,0,0-.3359,1.0322,12.0407,12.0407,0,0,0,1.0078,3.84Z"/><path class="f" d="M558.9766,167.3515a10.7743,10.7743,0,0,1-2.7124-7.7759V140.5678q0-6.1435,2.4482-9.2642t7.68-3.12a10.59,10.59,0,0,1,7.3437,2.4961q2.7832,2.4969,2.7842,7.2v7.104h-8.208v-6.0962a4.88,4.88,0,0,0-.4321-2.4477,1.6327,1.6327,0,0,0-1.4878-.6724,1.5558,1.5558,0,0,0-1.5122.7681,4.9312,4.9312,0,0,0-.4082,2.2563V159.48a4.5167,4.5167,0,0,0,.48,2.376,1.5982,1.5982,0,0,0,1.4405.7436q1.919,0,1.92-3.12v-7.44h8.3037v7.7759q0,10.3682-10.416,10.3676A9.532,9.532,0,0,1,558.9766,167.3515Z"/><path class="f" d="M586.8408,167.1357q-2.592-3.0477-2.5923-8.5679V138.936q0-5.3285,2.5923-8.04t7.584-2.7124q4.9914,0,7.584,2.7124t2.5918,8.04v19.6318q0,5.5686-2.5918,8.5918t-7.584,3.0239Q589.4319,170.1835,586.8408,167.1357Zm9.0718-5.4961a7.4773,7.4773,0,0,0,.3843-2.688v-20.16a5.6006,5.6006,0,0,0-.36-2.1841,1.4294,1.4294,0,0,0-1.4638-.84q-2.064,0-2.064,3.12V159a6.51,6.51,0,0,0,.4321,2.688,1.594,1.594,0,0,0,1.584.9116A1.4583,1.4583,0,0,0,595.9126,161.64Z"/><path class="f" d="M615.4,167.1357q-2.592-3.0477-2.5923-8.5679V138.936q0-5.3285,2.5923-8.04t7.584-2.7124q4.9914,0,7.584,2.7124t2.5918,8.04v19.6318q0,5.5686-2.5918,8.5918t-7.584,3.0239Q617.9915,170.1835,615.4,167.1357Zm9.0718-5.4961a7.48,7.48,0,0,0,.3842-2.688v-20.16a5.6026,5.6026,0,0,0-.36-2.1841,1.43,1.43,0,0,0-1.4639-.84q-2.064,0-2.0639,3.12V159a6.51,6.51,0,0,0,.4321,2.688,1.594,1.594,0,0,0,1.584.9116A1.4583,1.4583,0,0,0,624.4722,161.64Z"/><path class="f" d="M641.7041,169.8V128.5678H649.96v34.2241h8.4961V169.8Z"/><path class="f" d="M665.6074,169.8V128.5678h7.9683V169.8Z"/><path class="f" d="M682.1191,169.8V128.5678h8.4956l3.792,19.728v-19.728h7.9683V169.8h-8.064l-4.1279-20.64V169.8Z"/><path class="f" d="M713.1021,167.04q-2.1849-3.1435-2.1841-9.5283v-17.76q0-5.7121,2.5444-8.64t7.584-2.9283a10.67,10.67,0,0,1,6.3359,1.6324,8.3964,8.3964,0,0,1,3.12,4.7519,30.7716,30.7716,0,0,1,.8642,8.0161h-8.064v-3.6963a5.2675,5.2675,0,0,0-.4082-2.3037,1.4921,1.4921,0,0,0-1.4638-.8164q-2.3526,0-2.3521,3.0723v19.9678a6.5356,6.5356,0,0,0,.48,2.832,1.95,1.95,0,0,0,3.36,0,6.5433,6.5433,0,0,0,.48-2.832v-5.9039H721.19V145.8h10.08v24h-3.312l-1.3916-3.456a7.3292,7.3292,0,0,1-6.8164,3.84A7.5462,7.5462,0,0,1,713.1021,167.04Z"/></svg>