<?xml version="1.0" encoding="UTF-8" standalone="no"?>
<svg xmlns="http://www.w3.org/2000/svg">
<style>
.root {
	display:none;
}

.root:target {
	display: block;
}
</style>

<g class="root" id="header" viewBox="0 0 130 7">
	<g class="center">
		<line class="line" x1="0" y1="3.6" x2="62.1" y2="3.6" style="stroke-dashoffset: 63; stroke-dasharray: 63;"/>
		<line class="line" x1="130" y1="3.5" x2="67.9" y2="3.5" style="stroke-dashoffset: 63; stroke-dasharray: 63;"/>
		<circle class="circle" cx="65" cy="3.5" r="2.9" style="stroke-dashoffset: 19; stroke-dasharray: 19;"/>
	</g>
	<g class="left">
		<line class="line" x1="3.5" y1="3.4" x2="130" y2="3.4" style="stroke-dashoffset:127; stroke-dasharray: 127;"/>
		<circle class="circle" cx="3.5" cy="3.5" r="2.9" style="stroke-dashoffset:19; stroke-dasharray: 19;"/>
	</g>
	<g class="right">
		<line class="line" x1="127.1" y1="3.6" x2="0.6" y2="3.6" style="stroke-dashoffset:127; stroke-dasharray: 127;"/>
		<circle class="circle" cx="127.1" cy="3.5" r="2.9" style="stroke-dashoffset:19; stroke-dasharray: 19;"/>
	</g>
</g>

<g class="root" id="header-small" viewBox="0 0 130 7">
	<g class="center">
		<line class="line" x1="0" y1="3.6" x2="62.1" y2="3.6" style="stroke-dashoffset:63; stroke-dasharray: 63;"/>
		<line class="line" x1="130" y1="3.5" x2="67.9" y2="3.5" style="stroke-dashoffset:63; stroke-dasharray: 63;"/>
		<circle class="circle" cx="65" cy="3.5" r="2.9" style="stroke-dashoffset:19; stroke-dasharray: 19;"/>
	</g>
	<g class="left">
		<line class="line" x1="3.5" y1="3.4" x2="130" y2="3.4" style="stroke-dashoffset:127; stroke-dasharray: 127;"/>
		<circle class="circle" cx="3.5" cy="3.5" r="2.9" style="stroke-dashoffset:19; stroke-dasharray: 19;"/>
	</g>
	<g class="right">
		<line class="line" x1="127.1" y1="3.6" x2="0.6" y2="3.6" style="stroke-dashoffset:127; stroke-dasharray: 127;"/>
		<circle class="circle" cx="127.1" cy="3.5" r="2.9" style="stroke-dashoffset:19; stroke-dasharray: 19;"/>
	</g>
</g>

<g class="root" id="arrow-right" viewBox="0 0 26 16">
	<line class="line" x1="0.7" y1="8" x2="25.2" y2="8" style="stroke-dashoffset:25; stroke-dasharray: 25;"/>
	<line class="line" x1="18" y1="15.2" x2="25.3" y2="8" style="stroke-dashoffset:11; stroke-dasharray: 11;"/>
	<line class="line" x1="18" y1="0.8" x2="25.3" y2="8" style="stroke-dashoffset:11; stroke-dasharray: 11;"/>
</g>

<g class="root" id="arrow-up" viewBox="0 0 16 26">
	<line class="line" x1="8" y1="25.3" x2="8" y2="0.8" style="stroke-dashoffset:25; stroke-dasharray: 25;"/>
	<line class="line" x1="15.2" y1="8" x2="8" y2="0.7" style="stroke-dashoffset:11; stroke-dasharray: 11;"/>
	<line class="line" x1="0.8" y1="8" x2="8" y2="0.7" style="stroke-dashoffset:11; stroke-dasharray: 11;"/>
</g>	

<g class="root" id="arrow-left" viewBox="0 0 26 16">
	<line class="line" x1="25.3" y1="8" x2="0.8" y2="8" style="stroke-dashoffset:25; stroke-dasharray: 25;"/>
	<line class="line" x1="8" y1="0.8" x2="0.7" y2="8" style="stroke-dashoffset:11; stroke-dasharray: 11;"/>
	<line class="line" x1="8" y1="15.2" x2="0.7" y2="8" style="stroke-dashoffset:11; stroke-dasharray: 11;"/>
</g>

<g class="root" id="arrow-down" viewBox="0 0 16 26">
	<line class="line" x1="8" y1="0.7" x2="8" y2="25.2" style="stroke-dashoffset:25; stroke-dasharray: 25;"/>
	<line class="line" x1="0.8" y1="18" x2="8" y2="25.3" style="stroke-dashoffset:11; stroke-dasharray: 11;"/>
	<line class="line" x1="15.2" y1="18" x2="8" y2="25.3" style="stroke-dashoffset:11; stroke-dasharray: 11;"/>
</g>

</svg>


